# xmcd CD database file
#
# Track frame offsets:
#	150
#	21539
#	45504
#	68299
#	90356
#	104812
#	120605
#	142031
#	163899
#	181129
#	200902
#	219769
#	237229
#	261138
#	279080
#	303064
#	324338
#
# Disc length: 4676 seconds
#
# Revision: 0
# Processed by: cddbd v1.5.1PL0 Copyright (c) Steve Scherf et al.
# Submitted via: CDex 1.51
#
DISCID=e8124211
DTITLE=Santana - Sunrise
DYEAR=2002
DGENRE=Blues
TTITLE0=Samba Pati
TTITLE1=Black Magic woman - Gipsy Queen
TTITLE2=Europa
TTITLE3=Tales of Kilimanjaro
TTITLE4=Dance Sisters Dance
TTITLE5=The Sensitive Kind
TTITLE6=I Love You Much Too Much
TTITLE7=Brightest Star
TTITLE8=Written In Sand
TTITLE9=Gypsy Woman
TTITLE10=Havana Moon
TTITLE11=Flor D'Luna
TTITLE12=One With You
TTITLE13=Evil Ways
TTITLE14=I'll Be Waiting
TTITLE15=Mirage
TTITLE16=Mudbone
EXTD=YEAR: 2002
EXTT0=
EXTT1=
EXTT2=
EXTT3=
EXTT4=
EXTT5=
EXTT6=
EXTT7=
EXTT8=
EXTT9=
EXTT10=
EXTT11=
EXTT12=
EXTT13=
EXTT14=
EXTT15=
EXTT16=
PLAYORDER=
